<svg width="27" height="27" viewBox="0 0 27 27" fill="none" xmlns="http://www.w3.org/2000/svg">
<path d="M4.86869 18.6879L4.52204 19.6354C4.10609 20.7447 4.91491 21.9464 6.11659 21.9464H20.9296C22.085 21.9464 22.8938 20.7909 22.4779 19.7048L22.085 18.6879C21.7615 17.8329 21.4842 16.3771 21.4842 15.4527V13.6039C21.4842 9.23633 18.2027 5.28466 13.8351 5.07668C9.25943 4.86869 5.46952 8.54306 5.46952 13.0725V15.4296C5.46952 16.5388 5.26154 17.6481 4.86869 18.6879Z" stroke="#494B7C" stroke-linecap="round" stroke-linejoin="round"/>
<path d="M16.1459 5.00734V3.80566C16.1459 2.32668 14.9443 1.125 13.4653 1.125C11.9864 1.125 10.7847 2.32668 10.7847 3.80566V5.00734" stroke="#494B7C" stroke-linecap="round" stroke-linejoin="round"/>
<path d="M16.7466 22.5935C16.7466 24.3961 15.2907 25.875 13.4651 25.875C11.6395 25.875 10.1836 24.4191 10.1836 22.5935" stroke="#494B7C" stroke-linecap="round" stroke-linejoin="round"/>
</svg>
