<svg width="143" height="142" viewBox="0 0 143 142" fill="none" xmlns="http://www.w3.org/2000/svg">
<path d="M29.9089 23.5375C23.3316 23.5375 18 28.8334 18 35.3063V117.688C18 124.16 23.3316 129.456 29.9089 129.456H65.6354H77.5443H113.271C119.85 129.456 125.18 124.16 125.18 117.688V35.3063C125.18 28.8334 119.85 23.5375 113.271 23.5375H77.5443H65.6354H29.9089Z" fill="#AFAFAF"/>
<path d="M18.5 29.4219C18.5 23.2037 23.6021 18.1531 29.9089 18.1531H65.6354H77.5443H113.271C119.58 18.1531 124.68 23.2036 124.68 29.4219V111.803C124.68 118.024 119.58 123.072 113.271 123.072H77.5443H65.6354H29.9089C23.6021 123.072 18.5 118.024 18.5 111.803V29.4219Z" fill="#DEDEDE" stroke="#D0D0D0"/>
<path d="M29.9089 17.6531C23.3316 17.6531 18 22.9491 18 29.4219V47.075H125.18V29.4219C125.18 22.9491 119.85 17.6531 113.271 17.6531H77.5443H65.6354H29.9089Z" fill="#494B7C"/>
<path d="M44.7949 32.3641C44.7949 33.5232 44.5639 34.671 44.115 35.7418C43.6662 36.8127 43.0083 37.7858 42.1789 38.6054C41.3495 39.425 40.3649 40.0752 39.2813 40.5187C38.1976 40.9623 37.0362 41.1906 35.8633 41.1906C34.6904 41.1906 33.5289 40.9623 32.4453 40.5187C31.3617 40.0752 30.377 39.425 29.5477 38.6054C28.7183 37.7858 28.0604 36.8127 27.6115 35.7418C27.1627 34.671 26.9316 33.5232 26.9316 32.3641C26.9316 31.2049 27.1627 30.0572 27.6115 28.9863C28.0604 27.9154 28.7183 26.9424 29.5477 26.1227C30.377 25.3031 31.3617 24.653 32.4453 24.2094C33.5289 23.7658 34.6904 23.5375 35.8633 23.5375C37.0362 23.5375 38.1976 23.7658 39.2813 24.2094C40.3649 24.653 41.3495 25.3031 42.1789 26.1227C43.0083 26.9424 43.6662 27.9154 44.115 28.9863C44.5639 30.0572 44.7949 31.2049 44.7949 32.3641Z" fill="#7C7C7C"/>
<path d="M35.8631 5.88438C32.5745 5.88438 29.9087 8.51881 29.9087 11.7688V29.4219C29.9087 32.6718 32.5745 35.3063 35.8631 35.3063C39.1517 35.3063 41.8175 32.6718 41.8175 29.4219V11.7688C41.8175 8.51881 39.1517 5.88438 35.8631 5.88438Z" fill="#C9C9C9"/>
<path d="M116.248 32.3641C116.248 33.5232 116.017 34.671 115.568 35.7418C115.119 36.8127 114.461 37.7858 113.632 38.6054C112.803 39.425 111.818 40.0752 110.734 40.5188C109.651 40.9623 108.489 41.1906 107.316 41.1906C106.143 41.1906 104.982 40.9623 103.898 40.5188C102.815 40.0752 101.83 39.425 101.001 38.6054C100.171 37.7858 99.5135 36.8127 99.0646 35.7418C98.6158 34.671 98.3848 33.5232 98.3848 32.3641C98.3848 31.2049 98.6158 30.0572 99.0646 28.9863C99.5135 27.9154 100.171 26.9424 101.001 26.1227C101.83 25.3031 102.815 24.653 103.898 24.2094C104.982 23.7658 106.143 23.5375 107.316 23.5375C108.489 23.5375 109.651 23.7658 110.734 24.2094C111.818 24.653 112.803 25.3031 113.632 26.1227C114.461 26.9424 115.119 27.9154 115.568 28.9863C116.017 30.0572 116.248 31.2049 116.248 32.3641Z" fill="#7C7C7C"/>
<path d="M107.316 5.88438C104.029 5.88438 101.362 8.23813 101.362 11.7688V29.4219C101.362 32.3641 104.029 35.3063 107.316 35.3063C110.603 35.3063 113.271 32.3641 113.271 29.4219V11.7688C113.271 8.23813 110.603 5.88438 107.316 5.88438Z" fill="#C9C9C9"/>
<path d="M125.18 47.075H18V52.9594H125.18V47.075Z" fill="#C8C8C8"/>
<path d="M52 67V72H62C64.76 72 67 74 67 77C67 79.5 64.76 82 62 82H57V87H62C64.76 87 67 89 67 92C67 94.5 64.76 97 62 97H52V102H62C67.525 102 72 97.5 72 92C72 89 70.66 86 68.56 84.5C70.66 82.5 72 80 72 77C72 71.5 67.525 67 62 67H52Z" fill="#8F91C7"/>
<path d="M78 67V72H83V97H78V102H83H88H93V97H88V67H83H78Z" fill="#8F91C7"/>
</svg>
