<svg width="184" height="29" viewBox="0 0 184 29" fill="none" xmlns="http://www.w3.org/2000/svg">
<path d="M0.126875 19.4387V5.27874C0.126875 4.77207 0.260209 4.3854 0.526875 4.11874C0.793542 3.85207 1.16688 3.63874 1.64688 3.47874C2.47354 3.1854 3.47354 2.9854 4.64688 2.87874C5.84688 2.7454 6.95354 2.67874 7.96688 2.67874C11.4869 2.67874 14.1269 3.43874 15.8869 4.95874C17.6735 6.45207 18.5669 8.47874 18.5669 11.0387C18.5669 12.7187 18.1669 14.1987 17.3669 15.4787C16.5935 16.7321 15.4602 17.7054 13.9669 18.3987C12.4735 19.0921 10.6469 19.4387 8.48688 19.4387H0.126875ZM2.92687 27.7987C1.91354 27.7987 1.19354 27.6121 0.766875 27.2387C0.340209 26.8654 0.126875 26.2387 0.126875 25.3587V17.1187H5.32688V27.4787C5.08688 27.5321 4.74021 27.5987 4.28688 27.6787C3.86021 27.7587 3.40688 27.7987 2.92687 27.7987ZM5.28688 15.2787H8.12688C9.72688 15.2787 10.9802 14.9321 11.8869 14.2387C12.8202 13.5187 13.2869 12.4521 13.2869 11.0387C13.2869 9.65207 12.8469 8.61207 11.9669 7.91874C11.1135 7.2254 9.86021 6.87874 8.20688 6.87874C7.64688 6.87874 7.12688 6.9054 6.64688 6.95874C6.16688 6.9854 5.71354 7.03874 5.28688 7.11874V15.2787ZM22.7756 16.9587L27.8556 17.1987V27.4787C27.6423 27.5321 27.3223 27.5987 26.8956 27.6787C26.4956 27.7587 26.0556 27.7987 25.5756 27.7987C24.6156 27.7987 23.909 27.6254 23.4556 27.2787C23.0023 26.9321 22.7756 26.3187 22.7756 25.4387V16.9587ZM27.8556 19.7587L22.7756 19.5587V1.51874C23.0156 1.43874 23.3356 1.37207 23.7356 1.31874C24.1623 1.23874 24.6156 1.19874 25.0956 1.19874C26.0556 1.19874 26.749 1.37207 27.1756 1.71874C27.629 2.03874 27.8556 2.65207 27.8556 3.55874V19.7587ZM40.6406 28.1187C38.0006 28.1187 35.9073 27.5987 34.3606 26.5587C32.814 25.5187 32.0406 23.9854 32.0406 21.9587C32.0406 20.1721 32.6006 18.7987 33.7206 17.8387C34.8673 16.8787 36.5206 16.2921 38.6806 16.0787L44.1606 15.5187V14.8387C44.1606 13.7987 43.7873 13.0521 43.0406 12.5987C42.294 12.1187 41.2673 11.8787 39.9606 11.8787C38.9206 11.8787 37.9073 12.0121 36.9206 12.2787C35.934 12.5454 35.054 12.8521 34.2806 13.1987C33.9873 12.9854 33.734 12.6921 33.5206 12.3187C33.334 11.9454 33.2406 11.5587 33.2406 11.1587C33.2406 10.1454 33.774 9.41207 34.8406 8.95874C35.5873 8.63874 36.454 8.39874 37.4406 8.23874C38.454 8.05207 39.4673 7.95874 40.4806 7.95874C43.094 7.95874 45.174 8.51874 46.7206 9.63874C48.294 10.7587 49.0806 12.5054 49.0806 14.8787V24.1187C49.0806 24.7587 48.9206 25.2654 48.6006 25.6387C48.3073 26.0121 47.9073 26.3454 47.4006 26.6387C46.654 27.0654 45.7073 27.4121 44.5606 27.6787C43.414 27.9721 42.1073 28.1187 40.6406 28.1187ZM40.6406 24.2787C41.414 24.2787 42.1206 24.1987 42.7606 24.0387C43.4006 23.8787 43.8673 23.7054 44.1606 23.5187V19.0787L40.2806 19.4387C39.2406 19.5187 38.4273 19.7587 37.8406 20.1587C37.2806 20.5321 37.0006 21.0921 37.0006 21.8387C37.0006 22.5854 37.294 23.1854 37.8806 23.6387C38.4673 24.0654 39.3873 24.2787 40.6406 24.2787ZM71.6991 15.1587V19.0387H66.6191V15.3187C66.6191 14.1721 66.2857 13.3321 65.6191 12.7987C64.9524 12.2654 64.0724 11.9987 62.9791 11.9987C62.2057 11.9987 61.4991 12.1054 60.8591 12.3187C60.2191 12.5054 59.6457 12.7454 59.1391 13.0387V19.0387H54.0591V12.5987C54.0591 11.9587 54.1924 11.4387 54.4591 11.0387C54.7257 10.6387 55.1391 10.2521 55.6991 9.87874C56.4991 9.37207 57.5257 8.93207 58.7791 8.55874C60.0591 8.15874 61.4724 7.95874 63.0191 7.95874C65.7657 7.95874 67.8991 8.57207 69.4191 9.79874C70.9391 11.0254 71.6991 12.8121 71.6991 15.1587ZM54.0591 17.0787H59.1391V27.4787C58.9257 27.5321 58.6057 27.5987 58.1791 27.6787C57.7791 27.7587 57.3391 27.7987 56.8591 27.7987C55.8991 27.7987 55.1924 27.6254 54.7391 27.2787C54.2857 26.9321 54.0591 26.3187 54.0591 25.4387V17.0787ZM66.6191 17.0787H71.6991V27.4787C71.4591 27.5321 71.1257 27.5987 70.6991 27.6787C70.2991 27.7587 69.8591 27.7987 69.3791 27.7987C68.4191 27.7987 67.7124 27.6254 67.2591 27.2787C66.8324 26.9321 66.6191 26.3187 66.6191 25.4387V17.0787ZM86.5544 12.0387C85.0077 12.0387 83.6877 12.5587 82.5944 13.5987C81.501 14.6387 80.9544 16.1321 80.9544 18.0787C80.9544 20.0254 81.4744 21.5054 82.5144 22.5187C83.581 23.5321 84.9277 24.0387 86.5544 24.0387C87.4877 24.0387 88.301 23.9187 88.9944 23.6787C89.6877 23.4121 90.2877 23.1187 90.7944 22.7987C91.1944 23.0921 91.501 23.4121 91.7144 23.7587C91.9277 24.0787 92.0344 24.4787 92.0344 24.9587C92.0344 25.8654 91.501 26.6121 90.4344 27.1987C89.3677 27.7854 87.9277 28.0787 86.1144 28.0787C84.0877 28.0787 82.2877 27.7054 80.7144 26.9587C79.1677 26.2121 77.9677 25.1054 77.1144 23.6387C76.261 22.1454 75.8344 20.2921 75.8344 18.0787C75.8344 15.8387 76.2877 13.9721 77.1944 12.4787C78.1277 10.9854 79.3677 9.8654 80.9144 9.11874C82.461 8.3454 84.141 7.95874 85.9544 7.95874C87.741 7.95874 89.1677 8.27874 90.2344 8.91874C91.301 9.55874 91.8344 10.3321 91.8344 11.2387C91.8344 11.6654 91.7277 12.0521 91.5144 12.3987C91.301 12.7187 91.0344 12.9987 90.7144 13.2387C90.2077 12.9454 89.6077 12.6787 88.9144 12.4387C88.2477 12.1721 87.461 12.0387 86.5544 12.0387ZM103.688 28.1187C101.048 28.1187 98.9542 27.5987 97.4075 26.5587C95.8608 25.5187 95.0875 23.9854 95.0875 21.9587C95.0875 20.1721 95.6475 18.7987 96.7675 17.8387C97.9142 16.8787 99.5675 16.2921 101.728 16.0787L107.208 15.5187V14.8387C107.208 13.7987 106.834 13.0521 106.088 12.5987C105.341 12.1187 104.314 11.8787 103.008 11.8787C101.968 11.8787 100.954 12.0121 99.9675 12.2787C98.9808 12.5454 98.1008 12.8521 97.3275 13.1987C97.0342 12.9854 96.7808 12.6921 96.5675 12.3187C96.3808 11.9454 96.2875 11.5587 96.2875 11.1587C96.2875 10.1454 96.8208 9.41207 97.8875 8.95874C98.6342 8.63874 99.5008 8.39874 100.488 8.23874C101.501 8.05207 102.514 7.95874 103.528 7.95874C106.141 7.95874 108.221 8.51874 109.768 9.63874C111.341 10.7587 112.128 12.5054 112.128 14.8787V24.1187C112.128 24.7587 111.968 25.2654 111.648 25.6387C111.354 26.0121 110.954 26.3454 110.448 26.6387C109.701 27.0654 108.754 27.4121 107.608 27.6787C106.461 27.9721 105.154 28.1187 103.688 28.1187ZM103.688 24.2787C104.461 24.2787 105.168 24.1987 105.808 24.0387C106.448 23.8787 106.914 23.7054 107.208 23.5187V19.0787L103.328 19.4387C102.288 19.5187 101.474 19.7587 100.888 20.1587C100.328 20.5321 100.048 21.0921 100.048 21.8387C100.048 22.5854 100.341 23.1854 100.928 23.6387C101.514 24.0654 102.434 24.2787 103.688 24.2787ZM117.186 16.9587H122.186V21.6387C122.186 22.4921 122.453 23.1054 122.986 23.4787C123.519 23.8521 124.239 24.0387 125.146 24.0387C125.573 24.0387 126.026 23.9854 126.506 23.8787C127.013 23.7454 127.439 23.5987 127.786 23.4387C127.999 23.6521 128.173 23.9187 128.306 24.2387C128.466 24.5587 128.546 24.9187 128.546 25.3187C128.546 26.1187 128.186 26.7854 127.466 27.3187C126.746 27.8254 125.586 28.0787 123.986 28.0787C121.879 28.0787 120.213 27.6121 118.986 26.6787C117.786 25.7187 117.186 24.1454 117.186 21.9587V16.9587ZM120.226 12.9187V8.95874H128.066C128.199 9.1454 128.319 9.41207 128.426 9.75874C128.533 10.1054 128.586 10.4921 128.586 10.9187C128.586 11.6121 128.426 12.1187 128.106 12.4387C127.813 12.7587 127.386 12.9187 126.826 12.9187H120.226ZM122.186 18.0387H117.186V3.59874C117.399 3.5454 117.706 3.47874 118.106 3.39874C118.533 3.31874 118.986 3.27874 119.466 3.27874C120.399 3.27874 121.079 3.45207 121.506 3.79874C121.959 4.1454 122.186 4.75874 122.186 5.63874V18.0387ZM132.297 2.91874C132.297 2.11874 132.563 1.45207 133.097 0.918737C133.657 0.358736 134.363 0.0787358 135.217 0.0787358C136.07 0.0787358 136.763 0.358736 137.297 0.918737C137.857 1.45207 138.137 2.11874 138.137 2.91874C138.137 3.71874 137.857 4.39874 137.297 4.95874C136.763 5.49207 136.07 5.75874 135.217 5.75874C134.363 5.75874 133.657 5.49207 133.097 4.95874C132.563 4.39874 132.297 3.71874 132.297 2.91874ZM132.697 16.9587H137.737V27.4787C137.523 27.5321 137.203 27.5987 136.777 27.6787C136.377 27.7587 135.937 27.7987 135.457 27.7987C134.497 27.7987 133.79 27.6254 133.337 27.2787C132.91 26.9321 132.697 26.3187 132.697 25.4387V16.9587ZM137.737 19.5587H132.697V8.71874C132.91 8.6654 133.217 8.59874 133.617 8.51874C134.043 8.43874 134.497 8.39874 134.977 8.39874C135.937 8.39874 136.63 8.57207 137.057 8.91874C137.51 9.23874 137.737 9.85207 137.737 10.7587V19.5587ZM161.685 18.0387C161.685 20.0921 161.272 21.8787 160.445 23.3987C159.645 24.8921 158.512 26.0521 157.045 26.8787C155.579 27.7054 153.845 28.1187 151.845 28.1187C149.872 28.1187 148.139 27.7187 146.645 26.9187C145.179 26.0921 144.045 24.9187 143.245 23.3987C142.445 21.8787 142.045 20.0921 142.045 18.0387C142.045 15.9587 142.445 14.1721 143.245 12.6787C144.072 11.1854 145.219 10.0254 146.685 9.19874C148.179 8.37207 149.912 7.95874 151.885 7.95874C153.832 7.95874 155.539 8.3854 157.005 9.23874C158.472 10.0654 159.619 11.2254 160.445 12.7187C161.272 14.2121 161.685 15.9854 161.685 18.0387ZM151.845 11.9987C150.432 11.9987 149.299 12.5321 148.445 13.5987C147.619 14.6654 147.205 16.1454 147.205 18.0387C147.205 19.9587 147.619 21.4521 148.445 22.5187C149.272 23.5587 150.405 24.0787 151.845 24.0787C153.312 24.0787 154.445 23.5454 155.245 22.4787C156.072 21.4121 156.485 19.9321 156.485 18.0387C156.485 16.1454 156.072 14.6654 155.245 13.5987C154.419 12.5321 153.285 11.9987 151.845 11.9987ZM183.418 15.1587V19.0387H178.338V15.3187C178.338 14.1721 178.004 13.3321 177.338 12.7987C176.671 12.2654 175.791 11.9987 174.698 11.9987C173.924 11.9987 173.218 12.1054 172.578 12.3187C171.938 12.5054 171.364 12.7454 170.858 13.0387V19.0387H165.778V12.5987C165.778 11.9587 165.911 11.4387 166.178 11.0387C166.444 10.6387 166.858 10.2521 167.418 9.87874C168.218 9.37207 169.244 8.93207 170.498 8.55874C171.778 8.15874 173.191 7.95874 174.738 7.95874C177.484 7.95874 179.618 8.57207 181.138 9.79874C182.658 11.0254 183.418 12.8121 183.418 15.1587ZM165.778 17.0787H170.858V27.4787C170.644 27.5321 170.324 27.5987 169.898 27.6787C169.498 27.7587 169.058 27.7987 168.578 27.7987C167.618 27.7987 166.911 27.6254 166.458 27.2787C166.004 26.9321 165.778 26.3187 165.778 25.4387V17.0787ZM178.338 17.0787H183.418V27.4787C183.178 27.5321 182.844 27.5987 182.418 27.6787C182.018 27.7587 181.578 27.7987 181.098 27.7987C180.138 27.7987 179.431 27.6254 178.978 27.2787C178.551 26.9321 178.338 26.3187 178.338 25.4387V17.0787Z" fill="#8F91C7"/>
</svg>
