<svg width="320" height="319" viewBox="0 0 320 319" fill="none" xmlns="http://www.w3.org/2000/svg">
<path d="M18.5552 265.068H35.8032C40.3578 265.068 43.9978 266.263 46.7232 268.652C49.4485 271.041 50.8112 274.383 50.8112 278.676C50.8112 283.081 49.4485 286.497 46.7232 288.924C44.0352 291.313 40.3952 292.508 35.8032 292.508H28.4672V304.212H18.5552V265.068ZM34.2352 284.164C36.2138 284.164 37.7632 283.753 38.8832 282.932C40.0405 282.111 40.6192 280.692 40.6192 278.676C40.6192 276.66 40.0592 275.279 38.9392 274.532C37.8192 273.785 36.2512 273.412 34.2352 273.412H28.4672V284.164H34.2352ZM54.1567 262.828H64.0127V304.212H54.1567V262.828ZM79.1677 305.052C75.8077 305.052 73.0824 304.249 70.9917 302.644C68.9384 301.001 67.9117 298.724 67.9117 295.812C67.9117 292.788 68.9011 290.473 70.8797 288.868C72.8957 287.225 75.7704 286.404 79.5037 286.404C80.9597 286.404 82.4157 286.572 83.8717 286.908C85.3277 287.207 86.5784 287.617 87.6237 288.14V287.58C87.6237 284.705 85.2717 283.268 80.5677 283.268C77.2824 283.268 74.2771 283.903 71.5517 285.172V278.396C72.7464 277.836 74.3144 277.388 76.2557 277.052C78.1971 276.679 80.2131 276.492 82.3037 276.492C87.3064 276.492 91.0771 277.5 93.6157 279.516C96.1917 281.495 97.4797 284.276 97.4797 287.86V304.212H88.2397V301.916C87.2317 302.887 85.9624 303.652 84.4317 304.212C82.9011 304.772 81.1464 305.052 79.1677 305.052ZM82.0797 299.004C83.2371 299.004 84.3197 298.78 85.3277 298.332C86.3357 297.847 87.1011 297.231 87.6237 296.484V294.132C86.0184 293.049 84.1891 292.508 82.1357 292.508C80.8291 292.508 79.8211 292.788 79.1117 293.348C78.4024 293.908 78.0477 294.729 78.0477 295.812C78.0477 296.82 78.3837 297.604 79.0557 298.164C79.7651 298.724 80.7731 299.004 82.0797 299.004ZM102.227 277.332H111.747V280.3C112.904 279.031 114.304 278.079 115.947 277.444C117.59 276.809 119.307 276.492 121.099 276.492C124.87 276.492 127.651 277.481 129.443 279.46C131.272 281.401 132.187 284.052 132.187 287.412V304.212H122.331V288.7C122.331 285.676 120.95 284.164 118.187 284.164C116.918 284.164 115.76 284.463 114.715 285.06C113.67 285.62 112.792 286.497 112.083 287.692V304.212H102.227V277.332ZM151.85 305.052C146.922 305.052 143.02 303.82 140.146 301.356C137.271 298.892 135.834 295.383 135.834 290.828C135.834 286.273 137.271 282.745 140.146 280.244C143.058 277.743 146.978 276.492 151.906 276.492C154.108 276.492 156.162 276.716 158.066 277.164C160.007 277.575 161.612 278.172 162.882 278.956V286.628C160.604 284.985 157.599 284.164 153.866 284.164C151.476 284.164 149.554 284.724 148.098 285.844C146.679 286.927 145.97 288.588 145.97 290.828C145.97 293.105 146.679 294.785 148.098 295.868C149.516 296.913 151.42 297.436 153.81 297.436C157.431 297.436 160.567 296.577 163.218 294.86V302.476C160.38 304.193 156.591 305.052 151.85 305.052ZM177.004 305.052C173.644 305.052 170.918 304.249 168.828 302.644C166.774 301.001 165.748 298.724 165.748 295.812C165.748 292.788 166.737 290.473 168.716 288.868C170.732 287.225 173.606 286.404 177.34 286.404C178.796 286.404 180.252 286.572 181.708 286.908C183.164 287.207 184.414 287.617 185.46 288.14V287.58C185.46 284.705 183.108 283.268 178.404 283.268C175.118 283.268 172.113 283.903 169.388 285.172V278.396C170.582 277.836 172.15 277.388 174.092 277.052C176.033 276.679 178.049 276.492 180.14 276.492C185.142 276.492 188.913 277.5 191.452 279.516C194.028 281.495 195.316 284.276 195.316 287.86V304.212H186.076V301.916C185.068 302.887 183.798 303.652 182.268 304.212C180.737 304.772 178.982 305.052 177.004 305.052ZM179.916 299.004C181.073 299.004 182.156 298.78 183.164 298.332C184.172 297.847 184.937 297.231 185.46 296.484V294.132C183.854 293.049 182.025 292.508 179.972 292.508C178.665 292.508 177.657 292.788 176.948 293.348C176.238 293.908 175.884 294.729 175.884 295.812C175.884 296.82 176.22 297.604 176.892 298.164C177.601 298.724 178.609 299.004 179.916 299.004ZM210.289 305.052C206.966 305.052 204.446 304.137 202.729 302.308C201.049 300.441 200.209 297.903 200.209 294.692V284.164H196.401V277.332H200.209V269.268H210.065V277.332H216.225V284.164H210.065V293.348C210.065 294.804 210.326 295.849 210.849 296.484C211.409 297.119 212.38 297.436 213.761 297.436C214.993 297.436 216.225 297.1 217.457 296.428V303.764C216.486 304.212 215.441 304.529 214.321 304.716C213.238 304.94 211.894 305.052 210.289 305.052ZM225.507 273.748C224.013 273.748 222.763 273.263 221.755 272.292C220.747 271.321 220.243 270.089 220.243 268.596C220.243 267.14 220.747 265.927 221.755 264.956C222.763 263.948 224.013 263.444 225.507 263.444C226.963 263.444 228.195 263.948 229.203 264.956C230.248 265.927 230.771 267.14 230.771 268.596C230.771 270.052 230.248 271.284 229.203 272.292C228.195 273.263 226.963 273.748 225.507 273.748ZM220.579 277.332H230.435V304.212H220.579V277.332ZM251.285 305.052C247.962 305.052 245.05 304.455 242.549 303.26C240.047 302.028 238.106 300.348 236.725 298.22C235.381 296.055 234.709 293.572 234.709 290.772C234.709 287.972 235.381 285.508 236.725 283.38C238.106 281.215 240.047 279.535 242.549 278.34C245.05 277.108 247.962 276.492 251.285 276.492C254.607 276.492 257.519 277.108 260.021 278.34C262.522 279.535 264.445 281.215 265.789 283.38C267.17 285.508 267.861 287.972 267.861 290.772C267.861 293.572 267.17 296.055 265.789 298.22C264.445 300.348 262.522 302.028 260.021 303.26C257.519 304.455 254.607 305.052 251.285 305.052ZM251.285 297.38C253.263 297.38 254.831 296.801 255.989 295.644C257.183 294.449 257.781 292.825 257.781 290.772C257.781 288.719 257.183 287.113 255.989 285.956C254.831 284.761 253.263 284.164 251.285 284.164C249.306 284.164 247.719 284.761 246.525 285.956C245.367 287.113 244.789 288.719 244.789 290.772C244.789 292.825 245.367 294.449 246.525 295.644C247.719 296.801 249.306 297.38 251.285 297.38ZM271.758 277.332H281.278V280.3C282.436 279.031 283.836 278.079 285.478 277.444C287.121 276.809 288.838 276.492 290.63 276.492C294.401 276.492 297.182 277.481 298.974 279.46C300.804 281.401 301.718 284.052 301.718 287.412V304.212H291.862V288.7C291.862 285.676 290.481 284.164 287.718 284.164C286.449 284.164 285.292 284.463 284.246 285.06C283.201 285.62 282.324 286.497 281.614 287.692V304.212H271.758V277.332Z" fill="white"/>
<path d="M86.0644 42.0353C74.3187 42.0353 64.7975 51.4933 64.7975 63.053V210.177C64.7975 221.736 74.3187 231.194 86.0644 231.194H149.865H171.132H234.932C246.682 231.194 256.199 221.736 256.199 210.177V63.053C256.199 51.4933 246.682 42.0353 234.932 42.0353H171.132H149.865H86.0644Z" fill="#333333"/>
<path d="M86.0644 31.5265C74.3187 31.5265 64.7975 40.9361 64.7975 52.5441V199.668C64.7975 211.28 74.3187 220.685 86.0644 220.685H149.865H171.132H234.932C246.682 220.685 256.199 211.28 256.199 199.668V52.5441C256.199 40.9361 246.682 31.5265 234.932 31.5265H171.132H149.865H86.0644Z" fill="#444444"/>
<path d="M86.0644 31.5265C74.3187 31.5265 64.7975 40.9844 64.7975 52.5441V84.0706H256.199V52.5441C256.199 40.9844 246.682 31.5265 234.932 31.5265H171.132H149.865H86.0644Z" fill="#763CF0"/>
<path d="M112.648 57.7985C112.648 59.8686 112.235 61.9184 111.434 63.8309C110.632 65.7434 109.457 67.4811 107.976 68.9448C106.495 70.4086 104.737 71.5697 102.802 72.3619C100.867 73.1541 98.7924 73.5618 96.6978 73.5618C94.6032 73.5618 92.5291 73.1541 90.594 72.3619C88.6588 71.5697 86.9005 70.4086 85.4193 68.9448C83.9382 67.4811 82.7634 65.7434 81.9618 63.8309C81.1602 61.9184 80.7477 59.8686 80.7477 57.7985C80.7477 55.7285 81.1602 53.6787 81.9618 51.7662C82.7634 49.8537 83.9382 48.116 85.4193 46.6523C86.9005 45.1885 88.6588 44.0274 90.594 43.2352C92.5291 42.443 94.6032 42.0353 96.6978 42.0353C98.7924 42.0353 100.867 42.443 102.802 43.2352C104.737 44.0274 106.495 45.1885 107.976 46.6523C109.457 48.116 110.632 49.8537 111.434 51.7662C112.235 53.6787 112.648 55.7285 112.648 57.7985Z" fill="#FBACDB"/>
<path d="M96.6978 10.5088C90.825 10.5088 86.0644 15.2136 86.0644 21.0177V52.5441C86.0644 58.3482 90.825 63.053 96.6978 63.053C102.571 63.053 107.331 58.3482 107.331 52.5441V21.0177C107.331 15.2136 102.571 10.5088 96.6978 10.5088Z" fill="#333333"/>
<path d="M240.249 57.7985C240.249 59.8686 239.837 61.9184 239.035 63.8309C238.234 65.7434 237.059 67.4811 235.578 68.9448C234.096 70.4086 232.338 71.5697 230.403 72.3619C228.468 73.1541 226.394 73.5618 224.299 73.5618C222.204 73.5618 220.13 73.1541 218.195 72.3619C216.26 71.5697 214.502 70.4086 213.021 68.9448C211.539 67.4811 210.365 65.7434 209.563 63.8309C208.761 61.9184 208.349 59.8686 208.349 57.7985C208.349 55.7285 208.761 53.6787 209.563 51.7662C210.365 49.8537 211.539 48.116 213.021 46.6523C214.502 45.1885 216.26 44.0274 218.195 43.2352C220.13 42.443 222.204 42.0353 224.299 42.0353C226.394 42.0353 228.468 42.443 230.403 43.2352C232.338 44.0274 234.096 45.1885 235.578 46.6523C237.059 48.116 238.234 49.8537 239.035 51.7662C239.837 53.6787 240.249 55.7285 240.249 57.7985Z" fill="#FBACDB"/>
<path d="M224.299 10.5088C218.429 10.5088 213.666 14.7124 213.666 21.0177V52.5441C213.666 57.7985 218.429 63.053 224.299 63.053C230.169 63.053 234.932 57.7985 234.932 52.5441V21.0177C234.932 14.7124 230.169 10.5088 224.299 10.5088Z" fill="#333333"/>
<path d="M256.199 84.0706H64.7975V94.5795H256.199V84.0706Z" fill="#FBACDB"/>
<path d="M117.965 115.597V126.106H139.232C145.101 126.106 149.865 130.309 149.865 136.615C149.865 141.869 145.101 147.124 139.232 147.124H128.598V157.632H139.232C145.101 157.632 149.865 161.836 149.865 168.141C149.865 173.396 145.101 178.65 139.232 178.65H117.965V189.159H139.232C150.982 189.159 160.498 179.701 160.498 168.141C160.498 161.836 157.649 155.531 153.183 152.378C157.649 148.174 160.498 142.92 160.498 136.615C160.498 125.055 150.982 115.597 139.232 115.597H117.965Z" fill="white"/>
<path d="M171.132 115.597V126.106H181.765V178.65H171.132V189.159H181.765H192.399H203.032V178.65H192.399V115.597H181.765H171.132Z" fill="white"/>
</svg>
